<svg width="73" height="72" viewBox="0 0 73 72" fill="none" xmlns="http://www.w3.org/2000/svg">
<path d="M53.1069 69.093C41.9406 70.8407 30.5704 70.8407 19.4041 69.093L18.7405 68.9892C10.6787 67.7274 4.32641 61.4525 2.966 53.4067V53.4067C1.00258 41.7945 1.00259 29.9351 2.96601 18.323V18.323C4.32641 10.2772 10.6787 4.00227 18.7405 2.74049L19.4041 2.63664C30.5703 0.888976 41.9406 0.888976 53.1069 2.63664V2.63664C61.5443 3.95721 68.1631 10.576 69.4836 19.0134V19.0134C71.2313 30.1797 71.2313 41.5499 69.4836 52.7162V52.7162C68.1631 61.1537 61.5443 67.7724 53.1069 69.093V69.093Z" fill="black"/>
<path d="M53.1069 69.093C41.9406 70.8407 30.5704 70.8407 19.4041 69.093L18.7405 68.9892C10.6787 67.7274 4.32641 61.4525 2.966 53.4067V53.4067C1.00258 41.7945 1.00259 29.9351 2.96601 18.323V18.323C4.32641 10.2772 10.6787 4.00227 18.7405 2.74049L19.4041 2.63664C30.5703 0.888976 41.9406 0.888976 53.1069 2.63664V2.63664C61.5443 3.95721 68.1631 10.576 69.4836 19.0134V19.0134C71.2313 30.1797 71.2313 41.5499 69.4836 52.7162V52.7162C68.1631 61.1537 61.5443 67.7724 53.1069 69.093V69.093Z" fill="url(#paint0_radial_895_3557)"/>
<path d="M53.1069 69.093C41.9406 70.8407 30.5704 70.8407 19.4041 69.093L18.7405 68.9892C10.6787 67.7274 4.32641 61.4525 2.966 53.4067V53.4067C1.00258 41.7945 1.00259 29.9351 2.96601 18.323V18.323C4.32641 10.2772 10.6787 4.00227 18.7405 2.74049L19.4041 2.63664C30.5703 0.888976 41.9406 0.888976 53.1069 2.63664V2.63664C61.5443 3.95721 68.1631 10.576 69.4836 19.0134V19.0134C71.2313 30.1797 71.2313 41.5499 69.4836 52.7162V52.7162C68.1631 61.1537 61.5443 67.7724 53.1069 69.093V69.093Z" fill="url(#paint1_radial_895_3557)" fill-opacity="0.43" style="mix-blend-mode:hard-light"/>
<path d="M53.1069 69.093C41.9406 70.8407 30.5704 70.8407 19.4041 69.093L18.7405 68.9892C10.6787 67.7274 4.32641 61.4525 2.966 53.4067V53.4067C1.00258 41.7945 1.00259 29.9351 2.96601 18.323V18.323C4.32641 10.2772 10.6787 4.00227 18.7405 2.74049L19.4041 2.63664C30.5703 0.888976 41.9406 0.888976 53.1069 2.63664V2.63664C61.5443 3.95721 68.1631 10.576 69.4836 19.0134V19.0134C71.2313 30.1797 71.2313 41.5499 69.4836 52.7162V52.7162C68.1631 61.1537 61.5443 67.7724 53.1069 69.093V69.093Z" fill="#FC421D"/>
<path d="M53.1069 69.093C41.9406 70.8407 30.5704 70.8407 19.4041 69.093L18.7405 68.9892C10.6787 67.7274 4.32641 61.4525 2.966 53.4067V53.4067C1.00258 41.7945 1.00259 29.9351 2.96601 18.323V18.323C4.32641 10.2772 10.6787 4.00227 18.7405 2.74049L19.4041 2.63664C30.5703 0.888976 41.9406 0.888976 53.1069 2.63664V2.63664C61.5443 3.95721 68.1631 10.576 69.4836 19.0134V19.0134C71.2313 30.1797 71.2313 41.5499 69.4836 52.7162V52.7162C68.1631 61.1537 61.5443 67.7724 53.1069 69.093V69.093Z" fill="url(#paint2_radial_895_3557)"/>
<path d="M53.1069 69.093C41.9406 70.8407 30.5704 70.8407 19.4041 69.093L18.7405 68.9892C10.6787 67.7274 4.32641 61.4525 2.966 53.4067V53.4067C1.00258 41.7945 1.00259 29.9351 2.96601 18.323V18.323C4.32641 10.2772 10.6787 4.00227 18.7405 2.74049L19.4041 2.63664C30.5703 0.888976 41.9406 0.888976 53.1069 2.63664V2.63664C61.5443 3.95721 68.1631 10.576 69.4836 19.0134V19.0134C71.2313 30.1797 71.2313 41.5499 69.4836 52.7162V52.7162C68.1631 61.1537 61.5443 67.7724 53.1069 69.093V69.093Z" fill="url(#paint3_radial_895_3557)"/>
<path d="M43.7135 41.9069L49.2031 52.0626C49.3353 52.3047 49.1573 52.6024 48.8777 52.6024H25.3744C25.0948 52.6024 24.917 52.3047 25.0491 52.0626L30.3455 42.2701C30.4776 42.0279 30.2997 41.7303 30.0201 41.7303H14.7053C14.3648 41.7303 14.2072 41.3115 14.4614 41.0896L44.5827 14.4416C44.8928 14.1691 45.3502 14.5273 45.1519 14.8906L35.22 33.2546C35.0269 33.6178 35.4843 33.976 35.7892 33.7036L57.5543 14.4466C57.8644 14.1742 58.3218 14.5324 58.1235 14.8956L43.7034 41.5638C43.6424 41.6697 43.6424 41.8009 43.7034 41.9119L43.7135 41.9069Z" fill="white"/>
<defs>
<radialGradient id="paint0_radial_895_3557" cx="0" cy="0" r="1" gradientUnits="userSpaceOnUse" gradientTransform="translate(65.2412 66.0696) rotate(-136.953) scale(154.959 197.674)">
<stop stop-color="#FFD5B8"/>
<stop offset="0.14" stop-color="#FF8D41"/>
<stop offset="0.480134" stop-color="#FF3300"/>
</radialGradient>
<radialGradient id="paint1_radial_895_3557" cx="0" cy="0" r="1" gradientUnits="userSpaceOnUse" gradientTransform="translate(-6.8879 24.5778) rotate(95.3656) scale(73.2835 81.194)">
<stop stop-color="#FFEBDD"/>
<stop offset="0.601304" stop-color="#FF8D41"/>
<stop offset="1" stop-color="#FFB7A5" stop-opacity="0"/>
</radialGradient>
<radialGradient id="paint2_radial_895_3557" cx="0" cy="0" r="1" gradientUnits="userSpaceOnUse" gradientTransform="translate(55.9816 71.7305) rotate(-124.992) scale(43.7796 56.5455)">
<stop offset="0.08" stop-color="#B092FF"/>
<stop offset="0.423277" stop-color="#662DFF"/>
<stop offset="1" stop-color="#6C00A4"/>
</radialGradient>
<radialGradient id="paint3_radial_895_3557" cx="0" cy="0" r="1" gradientUnits="userSpaceOnUse" gradientTransform="translate(6.36744 2.39023) rotate(59.6973) scale(106.623 603.585)">
<stop offset="0.0315434" stop-color="#FFAE47"/>
<stop offset="0.185271" stop-color="#FF4D00"/>
<stop offset="0.399439" stop-color="#F1301C" stop-opacity="0.21"/>
<stop offset="0.556973" stop-color="#920BDD" stop-opacity="0"/>
</radialGradient>
</defs>
</svg>
