<svg width="107" height="107" viewBox="0 0 107 107" fill="none" xmlns="http://www.w3.org/2000/svg">
<path fill-rule="evenodd" clip-rule="evenodd" d="M18.8957 0H87.2189C97.6547 0 106.115 8.45989 106.115 18.8957V87.2188C106.115 97.6546 97.6547 106.114 87.2189 106.114H18.8957C8.4599 106.114 0 97.6546 0 87.2188V18.8957C0 8.45989 8.4599 0 18.8957 0ZM74.9055 28.4238H50.1583C48.62 28.4238 47.373 29.6708 47.373 31.2091V35.113C47.373 36.6513 48.62 37.8984 50.1583 37.8984H74.9055C76.4438 37.8984 77.6908 36.6513 77.6908 35.113V31.2091C77.6908 29.6708 76.4438 28.4238 74.9055 28.4238ZM50.1583 48.3222H70.4846C72.0229 48.3222 73.2699 49.5692 73.2699 51.1075V55.0114C73.2699 56.5497 72.0229 57.7968 70.4846 57.7968H50.1583C48.62 57.7968 47.373 56.5497 47.373 55.0114V51.1075C47.373 49.5692 48.62 48.3222 50.1583 48.3222ZM77.6908 74.9054V71.0015C77.6908 69.464 76.443 68.2161 74.9055 68.2161H45.1403C41.1383 68.2161 37.8984 64.9762 37.8984 60.9743V31.2091C37.8984 29.6716 36.6505 28.4238 35.113 28.4238H31.2091C29.6716 28.4238 28.4238 29.6716 28.4238 31.2091V66.7811C28.7981 72.637 33.4775 77.3164 39.3334 77.6907H74.9055C76.443 77.6907 77.6908 76.4429 77.6908 74.9054Z" fill="#316BFF"/>
<path d="M50.1583 28.4238H74.9055C76.4438 28.4238 77.6908 29.6708 77.6908 31.2091V35.113C77.6908 36.6513 76.4438 37.8984 74.9055 37.8984H50.1583C48.62 37.8984 47.373 36.6513 47.373 35.113V31.2091C47.373 29.6708 48.62 28.4238 50.1583 28.4238Z" fill="white"/>
<path d="M50.1583 48.3222H70.4846C72.0229 48.3222 73.2699 49.5692 73.2699 51.1075V55.0114C73.2699 56.5497 72.0229 57.7968 70.4846 57.7968H50.1583C48.62 57.7968 47.373 56.5497 47.373 55.0114V51.1075C47.373 49.5692 48.62 48.3222 50.1583 48.3222Z" fill="white"/>
<path d="M77.6908 71.0015V74.9054C77.6908 76.4429 76.443 77.6907 74.9055 77.6907H39.3334C33.4775 77.3164 28.7981 72.637 28.4238 66.7811V31.2091C28.4238 29.6716 29.6716 28.4238 31.2091 28.4238H35.113C36.6505 28.4238 37.8984 29.6716 37.8984 31.2091V60.9743C37.8984 64.9762 41.1383 68.2161 45.1403 68.2161H74.9055C76.443 68.2161 77.6908 69.464 77.6908 71.0015Z" fill="white"/>
</svg>
