<svg width="285" height="278" viewBox="0 0 285 278" fill="none" xmlns="http://www.w3.org/2000/svg">
<path d="M198.53 180.79V258.06C188.6 263.73 173.53 272.41 164.03 277.97L100.83 241.45C97.4102 239.45 91.1502 235.89 86.5702 233.3V94.3C93.0602 90.59 101.81 85.54 107.34 82.3L119.18 75.45C119.8 75.08 120.45 74.78 121.18 74.4L147 89.33C146.23 89.83 145.71 90.2 145.16 90.52C135.99 95.8 126.84 101.13 117.66 106.36C116.091 107.154 114.784 108.384 113.897 109.902C113.01 111.421 112.581 113.163 112.66 114.92C112.7 147.48 112.7 180.053 112.66 212.64C112.576 214.364 112.993 216.076 113.861 217.568C114.729 219.061 116.01 220.27 117.55 221.05C131.55 229.097 145.523 237.163 159.47 245.25C165.68 248.84 172.58 244.95 172.65 237.75C172.74 229.93 172.65 222.12 172.65 214.3C172.65 208.95 172.65 199.94 172.65 193.36L197.15 179.29C197.53 179.08 197.95 178.93 198.58 178.65L198.53 180.79ZM167.32 81.41C169.008 82.2673 170.41 83.5976 171.355 85.2384C172.3 86.8792 172.746 88.7596 172.64 90.65C172.56 101.03 172.64 111.42 172.64 121.82V124.17C173.55 123.69 174.12 123.41 174.64 123.07C181.31 119.22 191.21 113.44 198.54 109.25C198.54 97.5 198.54 82.62 198.54 71.25C198.54 70.66 198.48 70.07 198.47 69.45L78.2001 0C77.0901 0.61 76.0902 1.14 75.1302 1.7C51.4802 15.34 24.4902 30.91 0.660156 44.6C0.730156 56.32 0.660156 70.99 0.660156 82.46V84.46C23.5602 97.67 46.3402 110.81 69.4702 124.17C69.5302 123.12 69.5802 122.48 69.5802 121.83C69.5802 113.76 69.5802 102.61 69.5802 94.21C57.7002 87.4 43.0402 78.95 31.4902 72.21C30.3507 71.5682 29.3348 70.7284 28.4902 69.73C27.7398 68.7424 27.2134 67.6034 26.9473 66.392C26.6812 65.1806 26.6818 63.9258 26.9492 62.7147C27.2165 61.5036 27.7442 60.3651 28.4955 59.3783C29.2468 58.3915 30.2038 57.58 31.3002 57C45.3002 49 59.2735 40.9333 73.2202 32.8C74.6897 31.8323 76.4106 31.3165 78.1702 31.3165C79.9297 31.3165 81.6506 31.8323 83.1201 32.8C89.4301 36.54 95.8201 40.18 102.18 43.8C123.88 56.3667 145.593 68.9033 167.32 81.41ZM284.42 19.82C276.1 15.06 264.79 8.55 257.96 4.61C255.29 3.06 252.59 1.54 249.96 0.0299988C226.96 13.29 204.11 26.49 181.05 39.81C189.92 44.91 198.44 49.81 206.98 54.81C207.64 54.45 208.21 54.15 208.78 53.81C215.667 49.85 222.54 45.8867 229.4 41.92C234.68 38.8867 239.95 35.8433 245.21 32.79C246.524 31.9134 248.056 31.4185 249.634 31.3602C251.212 31.3019 252.776 31.6824 254.151 32.4596C255.526 33.2368 256.659 34.3802 257.423 35.7625C258.187 37.1449 258.553 38.7121 258.48 40.29C258.48 56.5033 258.48 72.72 258.48 88.94C258.494 89.7296 258.417 90.5181 258.25 91.29C257.63 94.17 255.72 95.95 253.25 97.36C243.877 102.693 234.543 108.073 225.25 113.5C206.397 124.373 187.553 135.257 168.72 146.15C167.309 147.029 165.676 147.489 164.014 147.474C162.351 147.46 160.726 146.973 159.33 146.07L132.33 130.47C131.54 130.03 130.72 129.63 129.63 129.06V131.29V156.9C129.569 157.54 129.71 158.183 130.033 158.739C130.355 159.295 130.844 159.736 131.43 160C138.92 164.23 146.34 168.56 153.79 172.86C157.22 174.86 160.66 176.8 164.1 178.78L167.97 176.57C187.83 165.103 207.7 153.63 227.58 142.15C245 132.09 266.58 119.68 284.46 109.43C284.39 82.39 284.39 46.14 284.42 19.82Z" fill="url(#paint0_linear_149_472)"></path>
<defs>
<linearGradient id="paint0_linear_149_472" x1="43.8402" y1="205.23" x2="239.61" y2="16.1" gradientUnits="userSpaceOnUse">
<stop stop-color="#D70F8D"></stop>
<stop offset="0.18" stop-color="#D8138C"></stop>
<stop offset="0.35" stop-color="#DA1D88"></stop>
<stop offset="0.51" stop-color="#DF3081"></stop>
<stop offset="0.66" stop-color="#E54978"></stop>
<stop offset="0.81" stop-color="#EC6A6D"></stop>
<stop offset="0.95" stop-color="#F6925E"></stop>
<stop offset="1" stop-color="#F9A159"></stop>
</linearGradient>
</defs>
</svg>